<svg width="818" height="107" viewBox="0 0 818 107" fill="none" xmlns="http://www.w3.org/2000/svg">
<path d="M67.9881 86.1113C72.5117 83.9825 76.5032 81.0554 79.9625 77.197L97.658 83.0512C95.2631 86.6435 92.4691 89.9697 89.1429 92.8968C85.9497 95.8239 82.4904 98.3518 78.632 100.481C74.9066 102.609 70.9151 104.206 66.5245 105.27C62.267 106.468 57.8763 107 53.2196 107C38.4512 107 26.0776 101.678 15.6998 91.3002C5.32196 80.9224 0 68.5488 0 53.7804C0 39.145 5.18891 26.6384 15.6998 16.2605C25.9446 5.74967 38.4512 0.560765 53.2196 0.560765C60.5373 0.560765 67.4559 1.89125 73.9753 4.68528C80.3616 7.47931 86.0827 11.3377 91.0055 16.2605L78.2328 28.7672C71.3143 21.8486 63.0653 18.3893 53.2196 18.3893C43.507 18.3893 35.1249 21.7156 28.0733 28.7672C21.1548 35.6857 17.8286 44.0678 17.8286 53.7804C17.8286 63.493 21.1548 72.0081 28.0733 78.9267C34.9919 85.8452 43.507 89.1714 53.2196 89.1714C58.5416 89.1714 63.4644 88.107 67.9881 86.1113ZM53.2196 62.6947V44.9991H97.658L79.9625 62.6947H53.2196ZM258.02 0.560765H275.715V106.734V106.867V107L187.237 27.4367V0.560765L258.02 64.2913V0.560765ZM644.615 71.609L635.834 89.1714L626.787 107H607.096L660.315 0.560765L695.839 71.609H675.882L660.315 40.3424L644.615 71.609ZM704.62 89.3045L713.535 107H693.71L684.929 89.3045H704.62Z" fill="#1D24CA"/>
<path d="M187.333 62.6947H205.029C205.029 74.9352 200.771 85.4461 191.99 94.0942C183.342 102.742 172.698 107 160.59 107C148.483 107 137.972 102.742 129.324 94.0942C120.675 85.4461 116.418 74.8021 116.418 62.6947V0.560765H134.113V62.6947C134.113 70.0124 136.641 76.2657 141.697 81.3215C146.886 86.6435 153.272 89.1714 160.59 89.1714C167.908 89.1714 174.161 86.5104 179.35 81.3215C184.539 76.1326 187.333 69.8793 187.333 62.6947ZM340.292 71.609L331.51 89.1714L322.463 107H302.772L355.991 0.560765L391.516 71.609H371.558L355.991 40.3424L340.292 71.609ZM400.297 89.3045L409.211 107H389.387L380.606 89.3045H400.297ZM432.569 0.560765L466.098 67.2183L456.119 87.1757L412.745 0.560765H432.569ZM566.284 0.560765H586.108L532.888 107L499.36 40.3424L509.339 20.3851L532.888 67.2183L566.284 0.560765ZM799.545 0.560765H817.24V106.734V106.867V107L728.763 27.4367V0.560765L799.545 64.2913V0.560765Z" fill="#F9E8C9"/>
</svg>
